<?xml version="1.0" encoding="UTF-8" standalone="no"?>
<!-- Uploaded to: SVG Repo, www.svgrepo.com, Generator: SVG Repo Mixer Tools -->

<svg
   xmlns:dc="http://purl.org/dc/elements/1.1/"
   xmlns:cc="http://creativecommons.org/ns#"
   xmlns:rdf="http://www.w3.org/1999/02/22-rdf-syntax-ns#"
   xmlns:svg="http://www.w3.org/2000/svg"
   xmlns="http://www.w3.org/2000/svg"
   xmlns:sodipodi="http://sodipodi.sourceforge.net/DTD/sodipodi-0.dtd"
   xmlns:inkscape="http://www.inkscape.org/namespaces/inkscape"
   width="320"
   height="480"
   viewBox="0 0 19.2 28.8"
   version="1.1"
   id="svg2"
   sodipodi:docname="cor_320x480.svg"
   inkscape:version="0.92.4 (5da689c313, 2019-01-14)">
  <defs
     id="defs2">
    <marker
       inkscape:stockid="Arrow1Lstart"
       orient="auto"
       refY="0"
       refX="0"
       id="Arrow1Lstart"
       style="overflow:visible"
       inkscape:isstock="true">
      <path
         id="path873"
         d="M 0,0 5,-5 -12.5,0 5,5 Z"
         style="fill-rule:evenodd;stroke:#000000;stroke-width:1.00000003pt"
         transform="matrix(0.8,0,0,0.8,10,0)"
         inkscape:connector-curvature="0" />
    </marker>
  </defs>
  <sodipodi:namedview
     id="namedview2"
     pagecolor="#ffffff"
     bordercolor="#000000"
     borderopacity="0.25"
     inkscape:showpageshadow="2"
     inkscape:pageopacity="0.0"
     inkscape:pagecheckerboard="0"
     inkscape:deskcolor="#d1d1d1"
     showgrid="false"
     inkscape:zoom="0.5"
     inkscape:cx="666.94227"
     inkscape:cy="188.3441"
     inkscape:window-width="1680"
     inkscape:window-height="987"
     inkscape:window-x="-8"
     inkscape:window-y="18"
     inkscape:window-maximized="1"
     inkscape:current-layer="svg2" />
  <title
     id="title1">location-point-of-interest</title>
  <metadata
     id="metadata2">
    <rdf:RDF>
      <cc:Work
         rdf:about="">
        <dc:title>location-point-of-interest</dc:title>
        <dc:format>image/svg+xml</dc:format>
        <dc:type
           rdf:resource="http://purl.org/dc/dcmitype/StillImage" />
      </cc:Work>
    </rdf:RDF>
  </metadata>
  <path
     id="path1167"
     style="fill:#3242a0;fill-opacity:1;stroke:#000000;stroke-width:0.02850677px;stroke-linecap:butt;stroke-linejoin:miter;stroke-opacity:1"
     d="M 8.6517416,22.527187 C 9.1160041,22.860067 10.168343,21.942511 9.5015882,20.851342 7.0098479,18.627967 5.9499416,17.349012 5.0772515,16.058555 3.8117679,14.112853 3.4994331,12.693991 3.5536984,11.477763 3.7996622,9.2663618 4.7399815,8.5396579 5.9520934,8.2528337 c 1.08318,-0.1603851 1.75696,0.2918724 2.2262556,0.8212995 0.2586968,0.2918435 0.4207798,0.6091932 0.6461859,0.784636 0.2659036,0.2069628 0.5740171,0.2232558 0.9445938,-0.082935 0.5107233,-0.7474195 0.9160293,-1.308835 1.5664103,-1.4074607 0.944243,-0.2758255 1.758914,-0.04739 2.484564,0.5274851 0.72753,0.783185 1.198808,1.7831654 1.054767,3.3037234 -0.221383,1.135638 -0.524284,2.211859 -1.148524,3.053861 L 13.702906,13.5877 C 13.400572,12.6554 12.399533,12.5949 12.0167,13.54704 l -0.0015,4.815786 c 0.111299,0.286878 0.0065,0.532112 0.679739,0.81899 l 4.101873,-0.04165 c 0.940396,-0.623308 0.454295,-1.833204 -0.02344,-1.957247 l -1.986153,-0.07594 m 0,4e-6 c 0.946768,-1.516555 1.760335,-3.138244 1.79006,-5.378879 C 16.578492,9.3495855 15.833705,8.5591257 15.127051,7.5565234 14.030263,6.4443753 12.7186,5.9950455 11.445352,6.2936937 10.711909,6.3640064 9.8764967,6.7896128 9.2314476,7.4881124 8.509872,6.8066086 7.8582145,6.4599645 7.0041262,6.2493184 6.0152374,6.2697221 4.8298929,6.0442699 3.3358798,7.5957936 1.9244318,9.1857799 1.6104804,11.231304 2.0535849,13.448892 c 0.4912775,2.082627 1.5449858,3.784589 2.805828,5.346359 1.0592241,1.219711 2.0890194,2.435937 3.7923287,3.731936"
     inkscape:connector-curvature="0" />
</svg>
