<?xml version="1.0" encoding="UTF-8" standalone="no"?>
<!-- Uploaded to: SVG Repo, www.svgrepo.com, Generator: SVG Repo Mixer Tools -->

<svg
   width="80"
   height="120"
   viewBox="0 0 4.8 7.2"
   version="1.1"
   id="svg13"
   sodipodi:docname="marker_salut.svg"
   inkscape:version="1.3.1 (9b9bdc1480, 2023-11-25, custom)"
   xmlns:inkscape="http://www.inkscape.org/namespaces/inkscape"
   xmlns:sodipodi="http://sodipodi.sourceforge.net/DTD/sodipodi-0.dtd"
   xmlns="http://www.w3.org/2000/svg"
   xmlns:svg="http://www.w3.org/2000/svg"
   xmlns:rdf="http://www.w3.org/1999/02/22-rdf-syntax-ns#"
   xmlns:cc="http://creativecommons.org/ns#"
   xmlns:dc="http://purl.org/dc/elements/1.1/">
  <metadata
     id="metadata19">
    <rdf:RDF>
      <cc:Work
         rdf:about="">
        <dc:format>image/svg+xml</dc:format>
        <dc:type
           rdf:resource="http://purl.org/dc/dcmitype/StillImage" />
        <dc:title>location-point-of-interest</dc:title>
      </cc:Work>
    </rdf:RDF>
  </metadata>
  <defs
     id="defs17" />
  <sodipodi:namedview
     pagecolor="#ffffff"
     bordercolor="#666666"
     borderopacity="1"
     objecttolerance="10"
     gridtolerance="10"
     guidetolerance="10"
     inkscape:pageopacity="0"
     inkscape:pageshadow="2"
     inkscape:window-width="1846"
     inkscape:window-height="1136"
     id="namedview15"
     showgrid="false"
     inkscape:zoom="6.675088"
     inkscape:cx="36.104393"
     inkscape:cy="55.879413"
     inkscape:window-x="74"
     inkscape:window-y="27"
     inkscape:window-maximized="1"
     inkscape:current-layer="svg13"
     inkscape:showpageshadow="2"
     inkscape:pagecheckerboard="0"
     inkscape:deskcolor="#d1d1d1" />
  <title
     id="title2">location-point-of-interest</title>
  <g
     data-name="invisible box"
     id="invisible_box">
    <rect
       style="fill:none"
       y="0"
       x="0"
       id="rect4"
       height="48"
       width="48" />
  </g>
  <g
     data-name="icons Q2"
     id="icons_Q2"
     style="fill:#000080"
     transform="matrix(0.13841939,0,0,0.16226913,-0.83275897,-0.25765898)">
    <path
       inkscape:connector-curvature="0"
       id="path7"
       d="m 23.38983,5.7966097 c 7.4,0 13,6.0000003 13,14.0000003 0,8 -8.6,16.7 -13,21.2 -4.4,-4.5 -13,-13.7 -13,-21.2 0,-7.5 5.6,-14.0000003 13,-14.0000003 m 0,-4 c -9.9,0 -16.9999999,8.1 -16.9999999,18.0000003 0,9.9 11.4999999,21.3 15.5999999,25.4 a 1.9,1.9 0 0 0 2.8,0 c 4.1,-4.1 15.6,-15.3 15.6,-25.4 0,-10.1000003 -7.1,-18.0000003 -17,-18.0000003 z"
       style="fill:#000080;fill-opacity:1" />
    <g
       style="fill:#000080;fill-opacity:1;stroke:none"
       transform="matrix(0.01346617,0,0,-0.01518594,11.437216,32.572407)"
       id="g2">
      <path
         inkscape:connector-curvature="0"
         d="M 577,1310 C 392,1263 276,1079 310,882 324,800 372,692 435,605 510,501 750,276 831,235 c 28,-15 33,-15 55,0 29,19 45,54 37,84 -3,11 -46,51 -96,88 -170,126 -309,286 -360,416 -30,78 -29,179 4,243 34,66 92,106 163,112 73,6 118,-11 182,-69 30,-27 59,-49 65,-49 19,0 52,22 78,53 76,90 238,88 315,-4 46,-54 59,-95 54,-169 -5,-63 -31,-138 -66,-190 l -17,-25 -5,59 c -4,49 -9,62 -31,79 -22,15 -33,17 -55,10 -49,-16 -55,-41 -52,-220 3,-140 5,-165 21,-180 15,-16 41,-18 187,-21 l 170,-3 25,25 c 30,31 32,55 4,90 -19,24 -26,26 -101,26 h -80 l 18,28 c 95,143 119,212 119,337 0,80 -4,98 -32,157 -38,81 -97,141 -172,177 -102,48 -280,31 -351,-34 -15,-13 -24,-11 -86,20 -76,39 -174,53 -247,35 z"
         id="path1-3"
         style="fill:#000080;fill-opacity:1" />
    </g>
  </g>
  <path
     style="fill:#ffffff;stroke:#ababab;stroke-width:0"
     d="M 2.2912464,6.2502963 C 1.7939724,5.6412214 1.4597933,5.1700994 1.185013,4.6907417 0.86565128,4.1336119 0.68067204,3.6394813 0.6230704,3.1896403 0.60924042,3.0816536 0.60768911,2.826291 0.62010169,2.7003153 0.64976909,2.3991655 0.71024359,2.158871 0.82463567,1.8875942 0.9270779,1.6446535 1.0281344,1.4792244 1.1903727,1.2888799 1.3369469,1.1169118 1.464678,1.0079147 1.6447076,0.90117642 1.8102808,0.80301027 1.9755529,0.7410224 2.1634494,0.70661764 2.2770038,0.68582669 2.5267173,0.68571966 2.6511808,0.70641461 3.445165,0.83841985 4.0465564,1.567173 4.1742616,2.552049 c 0.03183,0.2454749 0.034137,0.4626777 0.00727,0.6845786 -0.086693,0.7161504 -0.5142483,1.5623148 -1.2903422,2.5536761 -0.07589,0.096942 -0.4830816,0.5981958 -0.4859401,0.5981958 -6.508e-4,0 -0.051963,-0.062189 -0.1140194,-0.1382055 z M 2.3969816,4.4566993 C 2.4555223,4.4112439 2.4903714,4.3130068 2.4726083,4.2435117 2.4625497,4.2041695 2.3979423,4.125889 2.2524165,3.9767427 1.9520916,3.668946 1.7110929,3.2926704 1.6246714,2.9966329 1.5843248,2.8584262 1.5734504,2.6309159 1.6014243,2.5104209 1.642378,2.3340664 1.7295615,2.2056782 1.8417893,2.1564542 1.9892282,2.0917863 2.1139569,2.1282357 2.2451761,2.2743341 2.3470063,2.387713 2.3805747,2.4197835 2.3974137,2.4197835 c 0.026927,0 0.076191,-0.044656 0.1426577,-0.1293094 0.093824,-0.1195036 0.1671924,-0.161455 0.283546,-0.1621265 0.1072151,-6.168e-4 0.1877492,0.038938 0.2639357,0.129643 0.085925,0.1022974 0.1272197,0.2085983 0.1349478,0.3473902 0.00942,0.1688658 -0.041205,0.4039223 -0.1229698,0.5711284 l -0.026056,0.053281 -0.00183,-0.035772 c -0.010477,-0.204791 -0.024104,-0.2606759 -0.073976,-0.3036614 -0.034484,-0.029728 -0.071001,-0.032683 -0.114925,-0.00932 -0.033597,0.017886 -0.053869,0.048015 -0.0672,0.099868 -0.01334,0.051971 -0.01334,0.7407906 8.4e-6,0.8106653 0.011818,0.061827 0.033901,0.09215 0.076193,0.1046293 0.040561,0.011965 0.2858735,0.024635 0.4808524,0.024798 l 0.1442821,1.32e-4 0.030967,-0.04317 C 3.590731,3.8181734 3.607583,3.7714194 3.601727,3.7284832 3.596247,3.6882222 3.572092,3.6376602 3.542739,3.6049486 3.517218,3.5765016 3.466741,3.5675546 3.3286115,3.5669956 c -0.049356,-1.947e-4 -0.089736,-0.00271 -0.089736,-0.00558 0,-0.00287 0.022094,-0.050485 0.049096,-0.1058278 C 3.3920354,3.2423037 3.4430094,3.0953531 3.468401,2.9354296 3.4786957,2.8706071 3.4814978,2.813122 3.4815181,2.6672745 3.481565,2.4562546 3.4765996,2.4246163 3.4196007,2.2728003 3.3430445,2.0688617 3.2265723,1.9177545 3.0875421,1.8419902 3.0205027,1.8054574 2.9815169,1.7934975 2.8997157,1.7843743 2.7358716,1.7661018 2.5621132,1.8169547 2.4621042,1.9124595 c -0.021296,0.02033 -0.043837,0.036981 -0.050087,0.036981 -0.00625,0 -0.057929,-0.027796 -0.1148478,-0.061773 C 2.0454143,1.7373887 1.8444492,1.7397548 1.6449862,1.8953402 1.4843888,2.0206108 1.3661983,2.2453678 1.3279861,2.498161 c -0.013135,0.086851 -0.014981,0.2705265 -0.00358,0.3547997 0.028622,0.2115795 0.1291856,0.5011334 0.2449903,0.7054146 0.1190335,0.2099734 0.4609273,0.6474178 0.6409432,0.8200706 0.054702,0.052465 0.1250186,0.1040371 0.1418434,0.1040371 0.00636,0 0.026484,-0.011619 0.044787,-0.025826 z"
     id="path1" />
</svg>
