<?xml version="1.0" encoding="UTF-8" standalone="no"?>
<!-- Uploaded to: SVG Repo, www.svgrepo.com, Generator: SVG Repo Mixer Tools -->

<svg
   xmlns:dc="http://purl.org/dc/elements/1.1/"
   xmlns:cc="http://creativecommons.org/ns#"
   xmlns:rdf="http://www.w3.org/1999/02/22-rdf-syntax-ns#"
   xmlns:svg="http://www.w3.org/2000/svg"
   xmlns="http://www.w3.org/2000/svg"
   xmlns:sodipodi="http://sodipodi.sourceforge.net/DTD/sodipodi-0.dtd"
   xmlns:inkscape="http://www.inkscape.org/namespaces/inkscape"
   width="800px"
   height="800px"
   viewBox="0 0 48 48"
   version="1.1"
   id="svg13"
   sodipodi:docname="marker_salut.svg"
   inkscape:version="0.92.4 (5da689c313, 2019-01-14)">
  <metadata
     id="metadata19">
    <rdf:RDF>
      <cc:Work
         rdf:about="">
        <dc:format>image/svg+xml</dc:format>
        <dc:type
           rdf:resource="http://purl.org/dc/dcmitype/StillImage" />
        <dc:title>location-point-of-interest</dc:title>
      </cc:Work>
    </rdf:RDF>
  </metadata>
  <defs
     id="defs17" />
  <sodipodi:namedview
     pagecolor="#ffffff"
     bordercolor="#666666"
     borderopacity="1"
     objecttolerance="10"
     gridtolerance="10"
     guidetolerance="10"
     inkscape:pageopacity="0"
     inkscape:pageshadow="2"
     inkscape:window-width="1920"
     inkscape:window-height="1017"
     id="namedview15"
     showgrid="false"
     inkscape:zoom="0.295"
     inkscape:cx="400"
     inkscape:cy="400"
     inkscape:window-x="1672"
     inkscape:window-y="-8"
     inkscape:window-maximized="1"
     inkscape:current-layer="svg13" />
  <title
     id="title2">location-point-of-interest</title>
  <g
     data-name="invisible box"
     id="invisible_box">
    <rect
       style="fill:none"
       y="0"
       x="0"
       id="rect4"
       height="48"
       width="48" />
  </g>
  <g
     data-name="icons Q2"
     id="icons_Q2">
    <path
       inkscape:connector-curvature="0"
       id="path7"
       d="m 23.38983,5.7966097 c 7.4,0 13,6.0000003 13,14.0000003 0,8 -8.6,16.7 -13,21.2 -4.4,-4.5 -13,-13.7 -13,-21.2 0,-7.5 5.6,-14.0000003 13,-14.0000003 m 0,-4 c -9.9,0 -16.9999999,8.1 -16.9999999,18.0000003 0,9.9 11.4999999,21.3 15.5999999,25.4 a 1.9,1.9 0 0 0 2.8,0 c 4.1,-4.1 15.6,-15.3 15.6,-25.4 0,-10.1000003 -7.1,-18.0000003 -17,-18.0000003 z"
       style="fill:#5333af;fill-opacity:1" />
    <g
       style="fill:#5333af;fill-opacity:1;stroke:none"
       transform="matrix(0.01346617,0,0,-0.01518594,11.437216,32.572407)"
       id="g2">
      <path
         inkscape:connector-curvature="0"
         d="M 577,1310 C 392,1263 276,1079 310,882 324,800 372,692 435,605 510,501 750,276 831,235 c 28,-15 33,-15 55,0 29,19 45,54 37,84 -3,11 -46,51 -96,88 -170,126 -309,286 -360,416 -30,78 -29,179 4,243 34,66 92,106 163,112 73,6 118,-11 182,-69 30,-27 59,-49 65,-49 19,0 52,22 78,53 76,90 238,88 315,-4 46,-54 59,-95 54,-169 -5,-63 -31,-138 -66,-190 l -17,-25 -5,59 c -4,49 -9,62 -31,79 -22,15 -33,17 -55,10 -49,-16 -55,-41 -52,-220 3,-140 5,-165 21,-180 15,-16 41,-18 187,-21 l 170,-3 25,25 c 30,31 32,55 4,90 -19,24 -26,26 -101,26 h -80 l 18,28 c 95,143 119,212 119,337 0,80 -4,98 -32,157 -38,81 -97,141 -172,177 -102,48 -280,31 -351,-34 -15,-13 -24,-11 -86,20 -76,39 -174,53 -247,35 z"
         id="path1-3"
         style="fill:#5333af;fill-opacity:1" />
    </g>
  </g>
</svg>
