<?xml version="1.0" encoding="UTF-8" standalone="no"?>
<!-- Uploaded to: SVG Repo, www.svgrepo.com, Generator: SVG Repo Mixer Tools -->

<svg
   xmlns:dc="http://purl.org/dc/elements/1.1/"
   xmlns:cc="http://creativecommons.org/ns#"
   xmlns:rdf="http://www.w3.org/1999/02/22-rdf-syntax-ns#"
   xmlns:svg="http://www.w3.org/2000/svg"
   xmlns="http://www.w3.org/2000/svg"
   xmlns:sodipodi="http://sodipodi.sourceforge.net/DTD/sodipodi-0.dtd"
   xmlns:inkscape="http://www.inkscape.org/namespaces/inkscape"
   width="80"
   height="120"
   viewBox="0 0 4.8 7.2"
   version="1.1"
   id="svg13"
   sodipodi:docname="marker_star_black.svg"
   inkscape:version="0.92.4 (5da689c313, 2019-01-14)">
  <metadata
     id="metadata19">
    <rdf:RDF>
      <cc:Work
         rdf:about="">
        <dc:format>image/svg+xml</dc:format>
        <dc:type
           rdf:resource="http://purl.org/dc/dcmitype/StillImage" />
        <dc:title>location-point-of-interest</dc:title>
      </cc:Work>
    </rdf:RDF>
  </metadata>
  <defs
     id="defs17" />
  <sodipodi:namedview
     pagecolor="#ffffff"
     bordercolor="#666666"
     borderopacity="1"
     objecttolerance="10"
     gridtolerance="10"
     guidetolerance="10"
     inkscape:pageopacity="0"
     inkscape:pageshadow="2"
     inkscape:window-width="1920"
     inkscape:window-height="1017"
     id="namedview15"
     showgrid="false"
     inkscape:zoom="2.36"
     inkscape:cx="11.760145"
     inkscape:cy="55.879413"
     inkscape:window-x="1672"
     inkscape:window-y="-8"
     inkscape:window-maximized="1"
     inkscape:current-layer="Layer_2"
     inkscape:showpageshadow="2"
     inkscape:pagecheckerboard="0"
     inkscape:deskcolor="#d1d1d1" />
  <title
     id="title2">location-point-of-interest</title>
  <g
     data-name="invisible box"
     id="invisible_box">
    <rect
       style="fill:none"
       y="0"
       x="0"
       id="rect4"
       height="48"
       width="48" />
  </g>
  <g
     data-name="Layer 2"
     id="Layer_2"
     transform="matrix(0.13884326,0,0,0.15950288,-9.6087885,1.8397946)">
    <g
       data-name="invisible box"
       id="invisible_box-9">
      <rect
         id="rect906"
         height="48"
         width="48"
         x="0"
         y="0"
         style="fill:none" />
    </g>
    <g
       data-name="icons Q2"
       id="icons_Q2"
       style="fill:#000000;fill-opacity:1"
       transform="translate(61.708409,-13.707845)">
      <path
         id="path909"
         d="m 24.864284,6.7523375 c 7.4,0 13,6.0000005 13,14.0000005 0,8 -8.6,16.7 -13,21.2 -4.4,-4.5 -13,-13.7 -13,-21.2 0,-7.5 5.6,-14.0000005 13,-14.0000005 m 0,-4 c -9.9,0 -17.0000001,8.1000005 -17.0000001,18.0000005 0,9.9 11.5000001,21.3 15.6000001,25.4 a 1.9,1.9 0 0 0 2.8,0 c 4.1,-4.1 15.6,-15.3 15.6,-25.4 0,-10.1 -7.1,-18.0000005 -17,-18.0000005 z"
         inkscape:connector-curvature="0"
         style="fill:#000000;fill-opacity:1" />
      <path
         id="path911"
         d="m 29.1,16.9 -2.9,-0.4 -1.3,-2.9 a 1,1 0 0 0 -1.8,0 l -1.3,2.9 -2.9,0.4 a 1.1,1.1 0 0 0 -0.6,1.8 l 2.1,2 -0.5,3.1 a 1.1,1.1 0 0 0 1.5,1.1 L 24,23 l 2.6,1.9 a 1.1,1.1 0 0 0 1.5,-1.1 l -0.5,-3.1 2.1,-2 a 1.1,1.1 0 0 0 -0.6,-1.8 z"
         inkscape:connector-curvature="0"
         style="fill:#000000;fill-opacity:1" />
    </g>
  </g>
</svg>
