<?xml version="1.0" encoding="UTF-8" standalone="no"?>
<!-- Uploaded to: SVG Repo, www.svgrepo.com, Generator: SVG Repo Mixer Tools -->

<svg
   xmlns:dc="http://purl.org/dc/elements/1.1/"
   xmlns:cc="http://creativecommons.org/ns#"
   xmlns:rdf="http://www.w3.org/1999/02/22-rdf-syntax-ns#"
   xmlns:svg="http://www.w3.org/2000/svg"
   xmlns="http://www.w3.org/2000/svg"
   xmlns:sodipodi="http://sodipodi.sourceforge.net/DTD/sodipodi-0.dtd"
   xmlns:inkscape="http://www.inkscape.org/namespaces/inkscape"
   width="80"
   height="120"
   viewBox="0 0 4.8 7.2"
   version="1.1"
   id="svg13"
   sodipodi:docname="pois.svg"
   inkscape:version="0.92.4 (5da689c313, 2019-01-14)">
  <metadata
     id="metadata19">
    <rdf:RDF>
      <cc:Work
         rdf:about="">
        <dc:format>image/svg+xml</dc:format>
        <dc:type
           rdf:resource="http://purl.org/dc/dcmitype/StillImage" />
        <dc:title>location-point-of-interest</dc:title>
      </cc:Work>
    </rdf:RDF>
  </metadata>
  <defs
     id="defs17" />
  <sodipodi:namedview
     pagecolor="#ffffff"
     bordercolor="#666666"
     borderopacity="1"
     objecttolerance="10"
     gridtolerance="10"
     guidetolerance="10"
     inkscape:pageopacity="0"
     inkscape:pageshadow="2"
     inkscape:window-width="1680"
     inkscape:window-height="987"
     id="namedview15"
     showgrid="false"
     inkscape:zoom="4.72"
     inkscape:cx="11.760145"
     inkscape:cy="37.748484"
     inkscape:window-x="-8"
     inkscape:window-y="18"
     inkscape:window-maximized="1"
     inkscape:current-layer="svg13"
     inkscape:showpageshadow="2"
     inkscape:pagecheckerboard="0"
     inkscape:deskcolor="#d1d1d1" />
  <title
     id="title2">location-point-of-interest</title>
  <g
     data-name="invisible box"
     id="invisible_box">
    <rect
       style="fill:none"
       y="0"
       x="0"
       id="rect4"
       height="48"
       width="48" />
  </g>
  <path
     style="fill:#2ab29a;fill-opacity:1;stroke-width:0.264;stroke-miterlimit:4;stroke-dasharray:none"
     d="M 2.404847,0.99755442 C 3.4201619,1.0604749 3.9703796,1.749554 3.8807079,3.0446062 3.7908214,4.3427592 3.0138923,5.0713636 2.404847,5.8015747 1.7958017,5.0713636 1.0417155,4.1784939 1.009884,2.9996629 0.98059634,1.9150383 1.4688877,1.1510002 2.404847,0.99755442 m 0,-0.96367911 c -1.3703519,0 -2.35312959,1.31437999 -2.35312959,2.92084439 0,1.6064644 1.59182299,3.4563325 2.15934249,4.1216359 0.1042224,0.1331638 0.2833519,0.1331638 0.3875743,0 0.5675195,-0.6653034 2.1593425,-2.4827177 2.1593425,-4.1216359 0,-1.6389183 -0.9827777,-2.92084439 -2.3531297,-2.92084439 z"
     id="path7"
     inkscape:connector-curvature="0"
     sodipodi:nodetypes="cscscssccss" />
  <ellipse
     style="fill:#2ab29a;fill-opacity:1;stroke:none;stroke-width:0.264;stroke-miterlimit:4;stroke-dasharray:none;stroke-opacity:0.94117647"
     id="path833"
     cx="2.4048471"
     cy="2.7056773"
     rx="0.55729604"
     ry="0.58426195" />
  <path
     style="fill:#ffffff;fill-opacity:1;stroke:none;stroke-width:0.93220341;stroke-miterlimit:4;stroke-dasharray:none;stroke-opacity:0.94117647"
     d="M 37.669164,93.639227 C 24.762762,78.09795 19.274485,67.72449 17.352687,55.238804 c -0.495512,-3.21928 -0.493754,-10.359553 0.0033,-13.559322 2.059304,-13.255685 9.049065,-21.674473 20.293673,-24.442623 2.162271,-0.5323 3.212462,-0.55759 5.790493,-0.139446 5.952036,0.965389 10.541178,3.272855 14.149954,7.114736 3.827809,4.075059 5.992451,9.320677 6.8369,16.567985 0.411297,3.529865 0.305117,10.065674 -0.222167,13.675523 -1.692992,11.590386 -6.272314,20.89367 -16.043941,32.594647 -4.271786,5.115222 -7.911235,9.365195 -8.032767,9.380275 -0.07026,0.0087 -1.176809,-1.24739 -2.459006,-2.791352 z m 5.658777,-39.330794 c 2.452022,-0.92935 4.858291,-3.513231 5.629911,-6.045462 1.787,-5.864413 -1.706487,-11.843942 -7.515548,-12.863784 -2.394089,-0.420308 -5.318697,0.386154 -7.115762,1.962173 -2.014008,1.766278 -3.109191,3.793778 -3.48582,6.453259 -0.683452,4.826045 2.470026,9.644975 7.084677,10.82632 1.435369,0.367454 3.966824,0.211653 5.402542,-0.332506 z"
     id="path4542"
     inkscape:connector-curvature="0"
     transform="scale(0.06)" />
</svg>
