<?xml version="1.0" encoding="UTF-8" standalone="no"?>
<!-- Created with Inkscape (http://www.inkscape.org/) -->

<svg
   xmlns:dc="http://purl.org/dc/elements/1.1/"
   xmlns:cc="http://creativecommons.org/ns#"
   xmlns:rdf="http://www.w3.org/1999/02/22-rdf-syntax-ns#"
   xmlns:svg="http://www.w3.org/2000/svg"
   xmlns="http://www.w3.org/2000/svg"
   xmlns:sodipodi="http://sodipodi.sourceforge.net/DTD/sodipodi-0.dtd"
   xmlns:inkscape="http://www.inkscape.org/namespaces/inkscape"
   width="350mm"
   height="350mm"
   viewBox="0 0 350 350"
   version="1.1"
   id="svg4700"
   sodipodi:docname="splashscreen.svg"
   inkscape:version="0.92.4 (5da689c313, 2019-01-14)">
  <defs
     id="defs4694" />
  <sodipodi:namedview
     id="base"
     pagecolor="#01148b"
     bordercolor="#666666"
     borderopacity="1.0"
     inkscape:pageopacity="0"
     inkscape:pageshadow="2"
     inkscape:zoom="0.35"
     inkscape:cx="32.762536"
     inkscape:cy="433.70465"
     inkscape:document-units="mm"
     inkscape:current-layer="layer1"
     showgrid="false"
     inkscape:pagecheckerboard="true"
     inkscape:window-width="1680"
     inkscape:window-height="987"
     inkscape:window-x="-8"
     inkscape:window-y="18"
     inkscape:window-maximized="1" />
  <metadata
     id="metadata4697">
    <rdf:RDF>
      <cc:Work
         rdf:about="">
        <dc:format>image/svg+xml</dc:format>
        <dc:type
           rdf:resource="http://purl.org/dc/dcmitype/StillImage" />
        <dc:title />
      </cc:Work>
    </rdf:RDF>
  </metadata>
  <g
     inkscape:label="Layer 1"
     inkscape:groupmode="layer"
     id="layer1"
     transform="translate(0,53)">
    <g
       transform="matrix(0.14871583,0,0,-0.18192506,50.08365,196.51051)"
       id="g2"
       style="fill:#ffffff;fill-opacity:1;stroke:#000000;stroke-opacity:1">
      <path
         d="M 448.25248,1310 C 234.7702,1263 100.91104,1079 140.14562,882 156.30104,800 211.69104,692 284.39041,605 370.93727,501 647.88726,276 741.35787,235 c 32.31084,-15 38.08063,-15 63.46771,0 33.46479,19 51.92812,54 42.69645,84 -3.46187,11 -53.08208,51 -110.77999,88 -196.1729,126 -356.5731,286 -415.42497,416 -34.61875,78 -33.46479,179 4.61583,243 39.23458,66 106.16416,106 188.0952,112 84.23895,6 136.16707,-11 210.0204,-69 34.61875,-27 68.08354,-49 75.00729,-49 21.9252,0 60.00583,22 90.00874,53 87.70083,90 274.64187,88 363.49667,-4 53.0821,-54 68.0835,-95 62.3137,-169 -5.7698,-63 -35.7727,-138 -76.1612,-190 l -19.6173,-25 -5.7698,59 c -4.6158,49 -10.3856,62 -35.7727,79 -25.3871,15 -38.0806,17 -63.4677,10 -56.544,-16 -63.4677,-41 -60.0058,-220 3.4618,-140 5.7698,-165 24.2331,-180 17.3094,-16 47.3123,-18 215.7902,-21 l 196.1729,-3 28.8489,25 c 34.6188,31 36.9267,55 4.6159,90 -21.9252,24 -30.0029,26 -116.5498,26 h -92.3167 l 20.7713,28 c 109.626,143 137.321,212 137.321,337 0,80 -4.6158,98 -36.9267,157 -43.8504,81 -111.9339,141 -198.4808,177 -117.7037,48 -323.10809,31 -405.03912,-34 -17.30938,-13 -27.695,-11 -99.24041,20 -87.70083,39 -200.78874,53 -285.02769,35 z"
         id="path1-3"
         style="fill:#ffffff;fill-opacity:1;stroke:#000000;stroke-width:1.07422447;stroke-opacity:1"
         inkscape:connector-curvature="0" />
    </g>
    <g
       id="g5293"
       transform="matrix(0.89792352,0,0,0.84490064,31.704631,117.32013)"
       style="fill:#ffffff;fill-opacity:1">
      <path
         inkscape:connector-curvature="0"
         id="path4637"
         d="m 119.73639,187.48344 c 1.24785,-2.60427 6.21123,-7.45571 9.29448,-9.08487 1.89076,-0.99907 6.75456,-2.369 12.80773,-3.60743 8.00468,-1.63769 19.32305,-4.55132 23.92709,-6.15942 0.68387,-0.23887 1.20265,0.41629 1.91775,2.42191 1.31853,3.69803 2.46934,4.99809 4.42431,4.99809 2.02722,0 2.15062,-1.56332 0.45329,-5.74226 -1.35696,-3.34094 -1.12772,-4.53761 0.8693,-4.53761 1.19253,0 1.7551,0.67981 3.19011,3.85495 1.41614,3.1334 2.00609,3.85494 3.15181,3.85494 2.35412,0 2.67108,-1.78924 1.06877,-6.03316 -1.45515,-3.85417 -1.35269,-4.61952 0.66888,-4.99612 0.90397,-0.16839 1.49277,0.57439 2.74806,3.4668 1.80477,4.15846 3.24671,5.40857 5.01756,4.35003 1.47651,-0.8826 1.44374,-1.51812 -0.29324,-5.6856 -0.78785,-1.89028 -1.43245,-3.8066 -1.43245,-4.25848 0,-0.45189 1.55199,-1.46987 3.44888,-2.26222 l 3.44887,-1.44061 2.3782,2.39979 c 4.73017,4.77311 12.47437,7.3146 18.81377,6.1743 3.75076,-0.67467 8.87982,-2.9033 9.92784,-4.31373 1.94315,-2.61513 3.12425,0.34785 3.74659,9.39898 0.33688,4.89936 -0.41045,15.09608 -1.29514,17.6711 -0.28425,0.82737 -7.274,0.94872 -54.64395,0.94872 h -54.31801 z"
         style="fill:#ffffff;fill-opacity:1;stroke:none;stroke-width:2.67489958;stroke-miterlimit:4;stroke-dasharray:none;stroke-opacity:1" />
      <path
         inkscape:connector-curvature="0"
         id="path4639"
         d="m 90.131677,165.00507 c -0.195439,-0.81507 -0.356357,-3.0721 -0.357592,-5.01564 -0.0038,-5.41941 1.872068,-9.1186 8.785904,-17.32921 3.308331,-3.92884 7.794251,-9.85677 9.968691,-13.17318 2.17444,-3.31642 4.28571,-6.05004 4.6917,-6.07474 0.40599,-0.0247 2.0451,0.69482 3.64246,1.59891 3.64416,2.06256 5.97354,1.92264 5.97354,-0.35882 0,-1.31443 -0.64922,-1.98971 -3.57359,-3.71708 -3.37105,-1.99122 -3.538,-2.19806 -2.94586,-3.64962 l 0.62771,-1.53877 3.23348,1.65786 c 4.18674,2.14661 6.69137,2.56762 7.16002,1.20354 0.59444,-1.73019 -0.0691,-2.54672 -3.93703,-4.84494 -2.05068,-1.21844 -3.7285,-2.39195 -3.7285,-2.60779 0,-0.21582 0.33163,-0.899 0.73697,-1.51815 0.69091,-1.05536 0.96963,-1.00282 4.45804,0.84043 4.18533,2.21149 5.28128,2.38737 6.30352,1.01163 1.17275,-1.57831 0.23986,-2.79933 -3.81379,-4.99169 -2.11921,-1.14615 -3.94172,-2.3833 -4.05004,-2.74923 -0.10833,-0.36593 0.55489,-1.98947 1.4738,-3.60788 l 1.67075,-2.942547 3.36933,0.59208 c 6.21477,1.0921 13.52292,-1.28148 18.26542,-5.93233 2.04621,-2.00667 4.94938,-7.69535 4.94938,-9.69819 0,-2.26657 1.31125,-1.87979 5.35397,1.5793 7.37738,6.31236 16.34283,17.662417 15.01472,19.008327 -0.44749,0.4535 -55.61812,43.2774 -74.815781,58.07266 -7.760303,5.98071 -7.998384,6.09852 -8.457222,4.18507 z"
         style="fill:#ffffff;fill-opacity:1;stroke:none;stroke-width:2.67489958;stroke-miterlimit:4;stroke-dasharray:none;stroke-opacity:1" />
      <path
         inkscape:connector-curvature="0"
         id="path4641"
         d="m 94.922939,174.42794 -1.365765,-1.62377 1.409304,-1.51682 c 1.523317,-1.63952 80.482412,-63.12448 81.777322,-63.67948 0.43092,-0.1847 1.55017,0.56498 2.48719,1.66596 l 1.7037,2.00177 -1.94581,1.82703 c -2.16124,2.0293 -69.62971,54.43835 -76.79081,59.65058 -2.492517,1.81418 -4.841775,3.29851 -5.220597,3.29851 -0.378825,0 -1.303365,-0.73071 -2.054534,-1.62378 z"
         style="fill:#ffffff;fill-opacity:1;stroke:none;stroke-width:2.67489958;stroke-miterlimit:4;stroke-dasharray:none;stroke-opacity:1" />
      <path
         inkscape:connector-curvature="0"
         id="path4643"
         d="m 118.02845,199.36136 c -1.17804,-0.24971 -1.30971,-0.54908 -1.00066,-2.275 0.19573,-1.09309 0.50411,-2.15309 0.6853,-2.35554 0.18119,-0.20246 24.89903,-0.46832 54.92855,-0.59081 47.7718,-0.19486 54.59912,-0.10448 54.59912,0.7228 0,0.52004 -0.16179,1.84902 -0.35952,2.95331 l -0.35951,2.00778 -53.56838,-0.0875 c -29.4626,-0.0481 -54.1788,-0.21689 -54.9249,-0.37505 z"
         style="fill:#ffffff;fill-opacity:1;stroke:none;stroke-width:2.67489958;stroke-miterlimit:4;stroke-dasharray:none;stroke-opacity:1" />
    </g>
  </g>
</svg>
